<svg width="42" height="41" viewBox="0 0 42 41" fill="none" xmlns="http://www.w3.org/2000/svg">
<path d="M35.8369 14.24L35.3756 15.3013C35.3035 15.4741 35.1819 15.6217 35.0261 15.7255C34.8703 15.8294 34.6872 15.8848 34.5 15.8848C34.3128 15.8848 34.1297 15.8294 33.9739 15.7255C33.8181 15.6217 33.6965 15.4741 33.6244 15.3013L33.1631 14.24C32.3522 12.3626 30.867 10.8574 29.0006 10.0213L27.5775 9.38564C27.4048 9.30622 27.2586 9.17896 27.1561 9.01894C27.0535 8.85893 26.999 8.67287 26.999 8.48282C26.999 8.29278 27.0535 8.10672 27.1561 7.94671C27.2586 7.78669 27.4048 7.65943 27.5775 7.58001L28.9219 6.98189C30.8351 6.12197 32.3457 4.56104 33.1425 2.62064L33.6169 1.47501C33.6865 1.29755 33.8081 1.1452 33.9656 1.03781C34.1231 0.930423 34.3094 0.872986 34.5 0.872986C34.6906 0.872986 34.8769 0.930423 35.0344 1.03781C35.1919 1.1452 35.3135 1.29755 35.3831 1.47501L35.8575 2.61876C36.6534 4.55953 38.1634 6.12114 40.0763 6.98189L41.4225 7.58189C41.5946 7.66154 41.7404 7.78878 41.8425 7.94859C41.9446 8.1084 41.9989 8.2941 41.9989 8.48376C41.9989 8.67342 41.9446 8.85913 41.8425 9.01894C41.7404 9.17875 41.5946 9.30599 41.4225 9.38564L39.9975 10.0194C38.1315 10.8563 36.647 12.3622 35.8369 14.24ZM19.5 2.75001C9.14438 2.75001 0.75 11.1444 0.75 21.5C0.75 24.6931 1.54688 27.6988 2.955 30.3294L0.75 40.25L10.6706 38.045C13.3869 39.4968 16.4201 40.2543 19.5 40.25C29.8556 40.25 38.25 31.8556 38.25 21.5C38.25 20.745 38.2062 20.0013 38.1188 19.2688L34.395 19.7094C34.465 20.2969 34.5 20.8938 34.5 21.5C34.5 25.4783 32.9196 29.2936 30.1066 32.1066C27.2936 34.9197 23.4782 36.5 19.5 36.5C17.0369 36.5042 14.611 35.8987 12.4388 34.7375L11.2144 34.0831L5.68875 35.3113L6.91687 29.7856L6.26063 28.5613C5.10011 26.3888 4.49525 23.963 4.5 21.5C4.49942 19.2104 5.02298 16.9511 6.03056 14.8951C7.03814 12.8392 8.50301 11.0411 10.3129 9.63882C12.1228 8.23651 14.2297 7.26714 16.4722 6.80497C18.7146 6.3428 21.0331 6.40011 23.25 6.97251L24.1838 3.34064C22.6838 2.95439 21.1144 2.75001 19.5 2.75001ZM13.875 21.5H10.125C10.125 23.9864 11.1127 26.371 12.8709 28.1291C14.629 29.8873 17.0136 30.875 19.5 30.875C21.9864 30.875 24.371 29.8873 26.1291 28.1291C27.8873 26.371 28.875 23.9864 28.875 21.5H25.125C25.125 22.9919 24.5324 24.4226 23.4775 25.4775C22.4226 26.5324 20.9918 27.125 19.5 27.125C18.0082 27.125 16.5774 26.5324 15.5225 25.4775C14.4676 24.4226 13.875 22.9919 13.875 21.5Z" fill="black"/>
</svg>
