<svg width="51" height="51" viewBox="0 0 51 51" fill="none" xmlns="http://www.w3.org/2000/svg">
<path d="M44.0151 17.272L43.4924 18.4747C43.4107 18.6706 43.2729 18.8379 43.0963 18.9556C42.9197 19.0732 42.7122 19.136 42.5 19.136C42.2878 19.136 42.0803 19.0732 41.9037 18.9556C41.7271 18.8379 41.5893 18.6706 41.5076 18.4747L40.9849 17.272C40.0658 15.1443 38.3826 13.4383 36.2674 12.4907L34.6545 11.7704C34.4588 11.6803 34.2931 11.5361 34.1769 11.3548C34.0607 11.1734 33.9989 10.9625 33.9989 10.7472C33.9989 10.5318 34.0607 10.3209 34.1769 10.1396C34.2931 9.95822 34.4588 9.81399 34.6545 9.72398L36.1781 9.0461C38.3465 8.07153 40.0585 6.30248 40.9615 4.10335L41.4991 2.80498C41.5781 2.60385 41.7158 2.43119 41.8943 2.30948C42.0729 2.18778 42.2839 2.12268 42.5 2.12268C42.7161 2.12268 42.9271 2.18778 43.1057 2.30948C43.2842 2.43119 43.4219 2.60385 43.5009 2.80498L44.0385 4.10123C44.9405 6.30076 46.6518 8.07058 48.8198 9.0461L50.3455 9.7261C50.5406 9.81637 50.7057 9.96058 50.8215 10.1417C50.9373 10.3228 50.9988 10.5333 50.9988 10.7482C50.9988 10.9632 50.9373 11.1736 50.8215 11.3548C50.7057 11.5359 50.5406 11.6801 50.3455 11.7704L48.7305 12.4886C46.6157 13.4371 44.9333 15.1438 44.0151 17.272ZM25.5 4.24998C13.7636 4.24998 4.25 13.7636 4.25 25.5C4.25 29.1189 5.15313 32.5252 6.749 35.5066L4.25 46.75L15.4934 44.251C18.5718 45.8964 22.0094 46.7549 25.5 46.75C37.2364 46.75 46.75 37.2364 46.75 25.5C46.75 24.6443 46.7004 23.8014 46.6012 22.9712L42.381 23.4706C42.4603 24.1364 42.5 24.8129 42.5 25.5C42.5 30.0087 40.7089 34.3327 37.5208 37.5208C34.3327 40.7089 30.0087 42.5 25.5 42.5C22.7085 42.5047 19.9591 41.8185 17.4973 40.5025L16.1096 39.7608L9.84725 41.1527L11.2391 34.8904L10.4954 33.5027C9.18012 31.0406 8.49462 28.2913 8.5 25.5C8.49934 22.9051 9.09271 20.3445 10.2346 18.0144C11.3766 15.6843 13.0367 13.6466 15.088 12.0573C17.1392 10.468 19.527 9.36939 22.0684 8.8456C24.6099 8.32181 27.2375 8.38676 29.75 9.03548L30.8083 4.91935C29.1082 4.4816 27.3296 4.24998 25.5 4.24998ZM19.125 25.5H14.875C14.875 28.3179 15.9944 31.0204 17.987 33.013C19.9796 35.0056 22.6821 36.125 25.5 36.125C28.3179 36.125 31.0204 35.0056 33.013 33.013C35.0056 31.0204 36.125 28.3179 36.125 25.5H31.875C31.875 27.1907 31.2034 28.8122 30.0078 30.0078C28.8123 31.2033 27.1908 31.875 25.5 31.875C23.8092 31.875 22.1877 31.2033 20.9922 30.0078C19.7966 28.8122 19.125 27.1907 19.125 25.5Z" fill="white"/>
</svg>
